<?xml version="1.0" encoding="utf-8"?>
<!-- Generator: Adobe Illustrator 25.4.1, SVG Export Plug-In . SVG Version: 6.00 Build 0)  -->
<svg version="1.1" id="Layer_1" xmlns="http://www.w3.org/2000/svg" xmlns:xlink="http://www.w3.org/1999/xlink" x="0px" y="0px"
	 viewBox="0 0 128 128" style="enable-background:new 0 0 128 128;" xml:space="preserve">
<style type="text/css">
	.st0{fill:#FF800D;}
	.st1{fill:#FFFFFF;}
</style>
<g>
	<circle class="st0" cx="64" cy="64" r="64"/>
	<path class="st1" d="M48.6,43.1c4.8-7.7,9.9-15.2,14.1-23.3c0.3-0.6,0.7-1.2,1.1-1.8c1.4-2.2,3.6-2.3,5.6-1.7
		c1.8,0.5,2,2.5,1.9,4.1c-0.4,8.5-0.6,17-1.2,25.4c-0.2,2.9,0.3,4,3.5,3.8c4.8-0.3,9.7-0.2,14.5,0c2.7,0.1,5.6,0.3,5.8,4.1
		c-10.4,17.4-20.7,34.7-31.1,52.1c-0.7,1.1-0.6,2.4-1.6,3.4c-1.5,1.5-2.8,3.4-5.3,2.4c-2.5-1-2.5-3.2-2.3-5.4
		c0.5-5.3,1.2-10.5,1.8-15.8c0.6-5.3,1.2-10.6,1.9-15.8c0.3-2.4-0.4-3.1-2.8-3.1c-5.3,0.1-10.6,0-15.9-0.1c-4.4-0.1-5.8-2.3-3.5-6.1
		C39.5,58,44.1,50.6,48.6,43.1z"/>
</g>
</svg>
