<?xml version="1.0" encoding="utf-8"?>
<!-- Generator: Adobe Illustrator 25.4.1, SVG Export Plug-In . SVG Version: 6.00 Build 0)  -->
<svg version="1.1" id="Layer_1" xmlns="http://www.w3.org/2000/svg" xmlns:xlink="http://www.w3.org/1999/xlink" x="0px" y="0px"
	 viewBox="0 0 128 128" style="enable-background:new 0 0 128 128;" xml:space="preserve">
<style type="text/css">
	.st0{fill:#FF800D;}
</style>
<path class="st0" d="M43.6,36.3c6.4-10.2,13.1-20.1,18.7-30.8c0.4-0.8,1-1.6,1.4-2.4c1.8-2.9,4.8-3.1,7.5-2.2
	c2.4,0.7,2.6,3.3,2.6,5.5c-0.5,11.2-0.8,22.5-1.6,33.7c-0.3,3.8,0.4,5.3,4.6,5.1c6.4-0.4,12.8-0.2,19.2-0.1c3.6,0.1,7.5,0.4,7.7,5.4
	c-13.7,23-27.4,46-41.2,68.9c-0.9,1.5-0.8,3.2-2.2,4.5c-2,1.9-3.7,4.5-7.1,3.2c-3.4-1.3-3.4-4.3-3.1-7.1c0.7-7,1.6-14,2.4-20.9
	c0.8-7,1.5-14,2.5-20.9c0.4-3.1-0.6-4.1-3.7-4.1c-7,0.2-14.1,0.1-21.1-0.1C24.5,74,22.7,71,25.7,66C31.6,56.1,37.6,46.2,43.6,36.3z"
	/>
</svg>
