<?xml version="1.0" encoding="utf-8"?>
<!-- Generator: Adobe Illustrator 25.4.1, SVG Export Plug-In . SVG Version: 6.00 Build 0)  -->
<svg version="1.1" id="Layer_1" xmlns="http://www.w3.org/2000/svg" xmlns:xlink="http://www.w3.org/1999/xlink" x="0px" y="0px"
	 viewBox="0 0 433.6 101" style="enable-background:new 0 0 433.6 101;" xml:space="preserve">
<style type="text/css">
	.st0{fill:#FF800D;}
</style>
<g>
	<path class="st0" d="M15.1,28.4C20,20.6,25.1,13,29.4,4.9c0.3-0.6,0.7-1.2,1.1-1.8c1.4-2.2,3.6-2.3,5.7-1.7c1.8,0.5,2,2.5,2,4.2
		c-0.4,8.6-0.6,17.2-1.2,25.8c-0.2,2.9,0.3,4.1,3.5,3.9c4.9-0.3,9.8-0.2,14.7,0c2.8,0.1,5.7,0.3,5.9,4.1
		c-10.5,17.6-21,35.2-31.5,52.7C29,93.1,29,94.4,28,95.4c-1.6,1.5-2.8,3.4-5.4,2.4c-2.6-1-2.6-3.3-2.3-5.4c0.5-5.3,1.2-10.7,1.9-16
		c0.6-5.3,1.2-10.7,1.9-16c0.3-2.4-0.4-3.2-2.8-3.1c-5.4,0.1-10.7,0-16.1-0.1c-4.5-0.1-5.8-2.4-3.6-6.2C6,43.5,10.5,36,15.1,28.4z"
		/>
	<g>
		<path class="st0" d="M62.9,76.2l34.9-49.8v-0.6H65.1V14.6h50.1v10.5l-35,50.1v0.2h34.5v11.5H62.9V76.2z"/>
		<path class="st0" d="M121.9,71.4c0-10.3,7.2-15,18.2-16.6l12-1.5v-3.7c0-6.7-3-8.3-11.9-8.3c-5.4,0-10.2,0.6-13.8,1.7v-9.7
			c5.4-1.9,11.5-3,19.1-3c12.9,0,20.3,4.6,20.3,16.4v39.1h-11.3l-1.1-4.4h-0.6c-2.4,3.2-7.1,5.4-13.9,5.4
			C128.9,86.9,121.9,81.9,121.9,71.4z M152.1,74.6V61.9l-9,0.9c-5.2,0.5-7.7,2.4-7.7,7.5c0,5.1,3.3,7.2,7.8,7.2
			C146.8,77.5,150.4,76.2,152.1,74.6z"/>
		<path class="st0" d="M177.9,16.8h13.3v4.7h0.5c3.4-3.5,8.8-5.8,15.7-5.8c11.2,0,21.3,6.5,21.3,26.7v1.2c0,20.9-9.9,28.8-24.8,28.8
			c-5.8,0-9.9-1.5-12.2-2.8v17.4h-13.8V16.8z M214.4,45.3v-2c0-13.1-4.4-16.4-12.1-16.4c-5,0-8.6,1.5-10.6,2.8v29.7
			c1.9,1.4,5.7,2.7,10.1,2.7C209.7,62.2,214.4,58.2,214.4,45.3z"/>
		<path class="st0" d="M236.1,50.8v-2.6c0-26.1,15.4-36,34.4-36c8.3,0,14.1,1.3,18.5,3.6v11.3c-5.2-1.7-9.9-3.2-16.6-3.2
			c-12.3,0-20.2,6.7-20.2,22.9v3.6c0,15.6,5.7,24.6,20.4,24.6c8,0,13-1.9,17-3.7v11.3c-4.7,2.6-11.3,4.3-20.1,4.3
			C248.8,86.9,236.1,75.2,236.1,50.8z"/>
		<path class="st0" d="M296.2,59.6v-1.5c0-17.8,11-27.8,26.5-27.8c16.9,0,26.4,9.8,26.4,27.4v1.5c0,17.9-11,27.7-26.5,27.7
			C305.4,86.9,296.2,76.9,296.2,59.6z M334.7,60.2v-2.5c0-13.8-5.4-17.2-12.3-17.2c-7.6,0-12,5.1-12,16.8v2.3
			c0,13.6,5.4,17.2,12.3,17.2C330.3,76.8,334.7,71.7,334.7,60.2z"/>
		<path class="st0" d="M358.7,12.2h14.1V24h-14.1V12.2z M358.8,32.3h13.9v54.6h-13.9V32.3z"/>
		<path class="st0" d="M385.1,32.3h13.3v4.9h0.5c4.6-3.5,11.1-5.9,17.8-5.9c10.4,0,15.9,4.3,15.9,15.2v40.5h-13.9V49.7
			c0-5.2-1.9-7.3-8.6-7.3c-3.8,0-8.1,1.5-11.2,2.7v41.8h-13.8V32.3z"/>
	</g>
</g>
</svg>
